<mxfile host="app.diagrams.net" modified="2021-04-05T13:12:29.170Z" agent="5.0 (Windows NT 10.0; Win64; x64) AppleWebKit/537.36 (KHTML, like Gecko) Chrome/89.0.4389.114 Safari/537.36 Edg/89.0.774.68" etag="2DzT4TLLaH1-SoT3rruA" version="14.5.7" type="github">
  <diagram id="X21JkDmJbvydBPUjWJ2F" name="Page-1">
    <mxGraphModel dx="990" dy="548" grid="1" gridSize="10" guides="1" tooltips="1" connect="1" arrows="1" fold="1" page="1" pageScale="1" pageWidth="827" pageHeight="1169" math="0" shadow="0">
      <root>
        <mxCell id="0" />
        <mxCell id="1" parent="0" />
        <mxCell id="IwfWpi3OEJR8O0GezmDY-1" style="edgeStyle=orthogonalEdgeStyle;rounded=0;orthogonalLoop=1;jettySize=auto;html=1;entryX=0.5;entryY=0;entryDx=0;entryDy=0;shadow=1;sketch=1;" edge="1" parent="1" source="n53CaU5DFC7jTHlF9Mrl-1" target="-rMz-R6PVjzOVINi04i2-2">
          <mxGeometry relative="1" as="geometry" />
        </mxCell>
        <mxCell id="IwfWpi3OEJR8O0GezmDY-2" value="提交订单、更改订单" style="edgeLabel;html=1;align=center;verticalAlign=middle;resizable=0;points=[];" vertex="1" connectable="0" parent="IwfWpi3OEJR8O0GezmDY-1">
          <mxGeometry x="-0.3168" y="1" relative="1" as="geometry">
            <mxPoint as="offset" />
          </mxGeometry>
        </mxCell>
        <mxCell id="n53CaU5DFC7jTHlF9Mrl-1" value="&lt;p&gt;&lt;span style=&quot;font-size: 18px ; font-family: &amp;#34;comic sans ms&amp;#34;&quot;&gt;客户&lt;/span&gt;&lt;br&gt;&lt;/p&gt;" style="html=1;dashed=0;whitespace=wrap;shape=mxgraph.dfd.externalEntity;sketch=1;shadow=1;" parent="1" vertex="1">
          <mxGeometry x="110" y="60" width="100" height="100" as="geometry" />
        </mxCell>
        <mxCell id="n53CaU5DFC7jTHlF9Mrl-2" value="1" style="autosize=1;part=1;resizable=0;strokeColor=inherit;fillColor=inherit;gradientColor=inherit;" parent="n53CaU5DFC7jTHlF9Mrl-1" vertex="1">
          <mxGeometry width="20" height="20" relative="1" as="geometry">
            <mxPoint x="15" y="15" as="offset" />
          </mxGeometry>
        </mxCell>
        <mxCell id="n53CaU5DFC7jTHlF9Mrl-3" value="&lt;font style=&quot;font-size: 18px&quot;&gt;&lt;br&gt;&amp;nbsp; 人力资源&lt;br&gt;经理&lt;/font&gt;" style="html=1;dashed=0;whitespace=wrap;shape=mxgraph.dfd.externalEntity;sketch=1;shadow=1;" parent="1" vertex="1">
          <mxGeometry x="364" y="485" width="100" height="100" as="geometry" />
        </mxCell>
        <mxCell id="n53CaU5DFC7jTHlF9Mrl-4" value="2" style="autosize=1;part=1;resizable=0;strokeColor=inherit;fillColor=inherit;gradientColor=inherit;" parent="n53CaU5DFC7jTHlF9Mrl-3" vertex="1">
          <mxGeometry width="20" height="20" relative="1" as="geometry">
            <mxPoint x="15" y="15" as="offset" />
          </mxGeometry>
        </mxCell>
        <mxCell id="n53CaU5DFC7jTHlF9Mrl-5" value="&lt;font style=&quot;font-size: 18px&quot;&gt;&lt;br&gt;库存&lt;br&gt;负责人&lt;/font&gt;" style="html=1;dashed=0;whitespace=wrap;shape=mxgraph.dfd.externalEntity;sketch=1;shadow=1;" parent="1" vertex="1">
          <mxGeometry x="590" y="70" width="100" height="100" as="geometry" />
        </mxCell>
        <mxCell id="n53CaU5DFC7jTHlF9Mrl-6" value="3" style="autosize=1;part=1;resizable=0;strokeColor=inherit;fillColor=inherit;gradientColor=inherit;" parent="n53CaU5DFC7jTHlF9Mrl-5" vertex="1">
          <mxGeometry width="20" height="20" relative="1" as="geometry">
            <mxPoint x="15" y="15" as="offset" />
          </mxGeometry>
        </mxCell>
        <mxCell id="dFswPmYol0sfpQt9PpZ7-1" value="&lt;font style=&quot;font-size: 18px&quot;&gt;&lt;br&gt;采购&lt;br&gt;负责人&lt;/font&gt;" style="html=1;dashed=0;whitespace=wrap;shape=mxgraph.dfd.externalEntity;sketch=1;shadow=1;" parent="1" vertex="1">
          <mxGeometry x="110" y="410" width="100" height="100" as="geometry" />
        </mxCell>
        <mxCell id="dFswPmYol0sfpQt9PpZ7-2" value="4" style="autosize=1;part=1;resizable=0;strokeColor=inherit;fillColor=inherit;gradientColor=inherit;" parent="dFswPmYol0sfpQt9PpZ7-1" vertex="1">
          <mxGeometry width="20" height="20" relative="1" as="geometry">
            <mxPoint x="15" y="15" as="offset" />
          </mxGeometry>
        </mxCell>
        <mxCell id="dFswPmYol0sfpQt9PpZ7-3" value="&lt;font style=&quot;font-size: 18px&quot;&gt;厨师&lt;/font&gt;" style="html=1;dashed=0;whitespace=wrap;shape=mxgraph.dfd.externalEntity;sketch=1;shadow=1;" parent="1" vertex="1">
          <mxGeometry x="660" y="410" width="100" height="100" as="geometry" />
        </mxCell>
        <mxCell id="dFswPmYol0sfpQt9PpZ7-4" value="5" style="autosize=1;part=1;resizable=0;strokeColor=inherit;fillColor=inherit;gradientColor=inherit;" parent="dFswPmYol0sfpQt9PpZ7-3" vertex="1">
          <mxGeometry width="20" height="20" relative="1" as="geometry">
            <mxPoint x="15" y="15" as="offset" />
          </mxGeometry>
        </mxCell>
        <mxCell id="-rMz-R6PVjzOVINi04i2-2" value="0" style="swimlane;fontStyle=0;childLayout=stackLayout;horizontal=1;startSize=20;fillColor=#d5e8d4;horizontalStack=0;resizeParent=1;resizeParentMax=0;resizeLast=0;collapsible=0;marginBottom=0;swimlaneFillColor=#ffffff;strokeColor=#82b366;rounded=1;shadow=1;glass=0;sketch=1;" parent="1" vertex="1">
          <mxGeometry x="330" y="290" width="160" height="40" as="geometry" />
        </mxCell>
        <mxCell id="-rMz-R6PVjzOVINi04i2-4" value="订单管理系统" style="text;html=1;resizable=0;autosize=1;align=center;verticalAlign=middle;points=[];fillColor=none;strokeColor=none;rounded=0;" parent="-rMz-R6PVjzOVINi04i2-2" vertex="1">
          <mxGeometry y="20" width="160" height="20" as="geometry" />
        </mxCell>
      </root>
    </mxGraphModel>
  </diagram>
</mxfile>
